<svg id="SvgjsSvg1011" width="288" height="288" xmlns="http://www.w3.org/2000/svg" version="1.1"
    xmlns:xlink="http://www.w3.org/1999/xlink" xmlns:svgjs="http://svgjs.com/svgjs">
    <defs id="SvgjsDefs1012"></defs>
    <g id="SvgjsG1013">
        <svg xmlns="http://www.w3.org/2000/svg" viewBox="0 0 24 24" width="288" height="288">
            <path
                d="M8.29,11.29a1,1,0,0,0-.21.33,1,1,0,0,0,0,.76,1,1,0,0,0,.21.33l3,3a1,1,0,0,0,1.42-1.42L11.41,13H15a1,1,0,0,0,0-2H11.41l1.3-1.29a1,1,0,0,0,0-1.42,1,1,0,0,0-1.42,0ZM2,12A10,10,0,1,0,12,2,10,10,0,0,0,2,12Zm18,0a8,8,0,1,1-8-8A8,8,0,0,1,20,12Z"
                fill="#ffffff" class="color000 svgShape"></path>
        </svg>
    </g>
</svg>